<mxfile host="app.diagrams.net" modified="2024-01-21T07:44:06.367Z" agent="Mozilla/5.0 (Macintosh; Intel Mac OS X 10_15_7) AppleWebKit/537.36 (KHTML, like Gecko) Chrome/120.0.0.0 Safari/537.36" etag="t9kA9bVVzYujMsCG5HSA" version="22.1.21" type="github">
  <diagram id="C5RBs43oDa-KdzZeNtuy" name="Page-1">
    <mxGraphModel dx="654" dy="957" grid="1" gridSize="10" guides="1" tooltips="1" connect="1" arrows="1" fold="1" page="1" pageScale="1" pageWidth="827" pageHeight="1169" math="0" shadow="0">
      <root>
        <mxCell id="WIyWlLk6GJQsqaUBKTNV-0" />
        <mxCell id="WIyWlLk6GJQsqaUBKTNV-1" parent="WIyWlLk6GJQsqaUBKTNV-0" />
        <mxCell id="JwCSaX0RSoOB0MdqLCf4-31" style="edgeStyle=orthogonalEdgeStyle;rounded=0;orthogonalLoop=1;jettySize=auto;html=1;" parent="WIyWlLk6GJQsqaUBKTNV-1" source="WIyWlLk6GJQsqaUBKTNV-3" target="JwCSaX0RSoOB0MdqLCf4-32" edge="1">
          <mxGeometry relative="1" as="geometry">
            <mxPoint x="331.70000000000005" y="130" as="targetPoint" />
          </mxGeometry>
        </mxCell>
        <mxCell id="WIyWlLk6GJQsqaUBKTNV-3" value="Clue Starting Scene" style="rounded=1;whiteSpace=wrap;html=1;fontSize=12;glass=0;strokeWidth=1;shadow=0;" parent="WIyWlLk6GJQsqaUBKTNV-1" vertex="1">
          <mxGeometry x="280" y="40" width="120" height="40" as="geometry" />
        </mxCell>
        <mxCell id="3HpmYtwetIIkrx0pe5Fz-3" value="" style="edgeStyle=orthogonalEdgeStyle;rounded=0;orthogonalLoop=1;jettySize=auto;html=1;entryX=0.5;entryY=0;entryDx=0;entryDy=0;" parent="WIyWlLk6GJQsqaUBKTNV-1" source="3HpmYtwetIIkrx0pe5Fz-0" edge="1" target="3HpmYtwetIIkrx0pe5Fz-7">
          <mxGeometry relative="1" as="geometry">
            <mxPoint x="331.75" y="330" as="targetPoint" />
          </mxGeometry>
        </mxCell>
        <mxCell id="3HpmYtwetIIkrx0pe5Fz-0" value="Login" style="rounded=1;whiteSpace=wrap;html=1;" parent="WIyWlLk6GJQsqaUBKTNV-1" vertex="1">
          <mxGeometry x="280" y="200" width="120" height="40" as="geometry" />
        </mxCell>
        <mxCell id="3HpmYtwetIIkrx0pe5Fz-1" style="edgeStyle=orthogonalEdgeStyle;rounded=0;orthogonalLoop=1;jettySize=auto;html=1;exitX=0.5;exitY=1;exitDx=0;exitDy=0;" parent="WIyWlLk6GJQsqaUBKTNV-1" source="3HpmYtwetIIkrx0pe5Fz-0" target="3HpmYtwetIIkrx0pe5Fz-0" edge="1">
          <mxGeometry relative="1" as="geometry" />
        </mxCell>
        <mxCell id="3HpmYtwetIIkrx0pe5Fz-2" value="Home Scene" style="whiteSpace=wrap;html=1;rounded=1;" parent="WIyWlLk6GJQsqaUBKTNV-1" vertex="1">
          <mxGeometry x="280" y="360" width="120" height="40" as="geometry" />
        </mxCell>
        <mxCell id="HTRj5CVmtDGynTPaIfWx-3" style="edgeStyle=orthogonalEdgeStyle;rounded=0;orthogonalLoop=1;jettySize=auto;html=1;exitX=0.5;exitY=1;exitDx=0;exitDy=0;entryX=0.5;entryY=0;entryDx=0;entryDy=0;" edge="1" parent="WIyWlLk6GJQsqaUBKTNV-1" source="3HpmYtwetIIkrx0pe5Fz-7" target="3HpmYtwetIIkrx0pe5Fz-2">
          <mxGeometry relative="1" as="geometry" />
        </mxCell>
        <mxCell id="HTRj5CVmtDGynTPaIfWx-11" value="Yes" style="edgeLabel;html=1;align=center;verticalAlign=middle;resizable=0;points=[];" connectable="0" vertex="1" parent="HTRj5CVmtDGynTPaIfWx-3">
          <mxGeometry x="-0.15" y="1" relative="1" as="geometry">
            <mxPoint x="8" y="2" as="offset" />
          </mxGeometry>
        </mxCell>
        <mxCell id="HTRj5CVmtDGynTPaIfWx-4" style="edgeStyle=orthogonalEdgeStyle;rounded=0;orthogonalLoop=1;jettySize=auto;html=1;exitX=1;exitY=0.5;exitDx=0;exitDy=0;entryX=0;entryY=0.5;entryDx=0;entryDy=0;" edge="1" parent="WIyWlLk6GJQsqaUBKTNV-1" source="3HpmYtwetIIkrx0pe5Fz-7" target="Gx720E7wN7_lt2PWXB4A-29">
          <mxGeometry relative="1" as="geometry" />
        </mxCell>
        <mxCell id="HTRj5CVmtDGynTPaIfWx-7" value="No" style="edgeLabel;html=1;align=center;verticalAlign=middle;resizable=0;points=[];" connectable="0" vertex="1" parent="HTRj5CVmtDGynTPaIfWx-4">
          <mxGeometry x="-0.15" y="2" relative="1" as="geometry">
            <mxPoint x="2" y="-6" as="offset" />
          </mxGeometry>
        </mxCell>
        <mxCell id="3HpmYtwetIIkrx0pe5Fz-7" value="Valid?" style="rhombus;whiteSpace=wrap;html=1;" parent="WIyWlLk6GJQsqaUBKTNV-1" vertex="1">
          <mxGeometry x="280" y="280" width="120" height="40" as="geometry" />
        </mxCell>
        <mxCell id="3HpmYtwetIIkrx0pe5Fz-17" style="edgeStyle=orthogonalEdgeStyle;rounded=0;orthogonalLoop=1;jettySize=auto;html=1;exitX=0.5;exitY=1;exitDx=0;exitDy=0;" parent="WIyWlLk6GJQsqaUBKTNV-1" source="3HpmYtwetIIkrx0pe5Fz-15" edge="1">
          <mxGeometry relative="1" as="geometry">
            <mxPoint x="331.75" y="570" as="targetPoint" />
          </mxGeometry>
        </mxCell>
        <mxCell id="3HpmYtwetIIkrx0pe5Fz-18" value="Yes" style="edgeLabel;html=1;align=center;verticalAlign=middle;resizable=0;points=[];" parent="3HpmYtwetIIkrx0pe5Fz-17" vertex="1" connectable="0">
          <mxGeometry x="0.0622" relative="1" as="geometry">
            <mxPoint as="offset" />
          </mxGeometry>
        </mxCell>
        <mxCell id="3HpmYtwetIIkrx0pe5Fz-15" value="Make room?" style="rhombus;whiteSpace=wrap;html=1;" parent="WIyWlLk6GJQsqaUBKTNV-1" vertex="1">
          <mxGeometry x="271.75" y="490" width="120" height="40" as="geometry" />
        </mxCell>
        <mxCell id="JwCSaX0RSoOB0MdqLCf4-1" style="edgeStyle=orthogonalEdgeStyle;rounded=0;orthogonalLoop=1;jettySize=auto;html=1;entryX=0.5;entryY=0;entryDx=0;entryDy=0;" parent="WIyWlLk6GJQsqaUBKTNV-1" source="ZR01JRABGJdEw6RTcn_Y-5" target="JwCSaX0RSoOB0MdqLCf4-0" edge="1">
          <mxGeometry relative="1" as="geometry" />
        </mxCell>
        <mxCell id="ZR01JRABGJdEw6RTcn_Y-5" value="&lt;font style=&quot;font-size: 12px;&quot;&gt;Room scene&lt;/font&gt;" style="rounded=1;whiteSpace=wrap;html=1;fontSize=16;" parent="WIyWlLk6GJQsqaUBKTNV-1" vertex="1">
          <mxGeometry x="271.75" y="570" width="120" height="40" as="geometry" />
        </mxCell>
        <mxCell id="JwCSaX0RSoOB0MdqLCf4-3" value="" style="edgeStyle=orthogonalEdgeStyle;rounded=0;orthogonalLoop=1;jettySize=auto;html=1;" parent="WIyWlLk6GJQsqaUBKTNV-1" source="JwCSaX0RSoOB0MdqLCf4-0" target="JwCSaX0RSoOB0MdqLCf4-2" edge="1">
          <mxGeometry relative="1" as="geometry" />
        </mxCell>
        <mxCell id="JwCSaX0RSoOB0MdqLCf4-0" value="Invite player" style="rounded=1;whiteSpace=wrap;html=1;" parent="WIyWlLk6GJQsqaUBKTNV-1" vertex="1">
          <mxGeometry x="271.75" y="650" width="120" height="40" as="geometry" />
        </mxCell>
        <mxCell id="JwCSaX0RSoOB0MdqLCf4-2" value="Game play" style="rounded=1;whiteSpace=wrap;html=1;" parent="WIyWlLk6GJQsqaUBKTNV-1" vertex="1">
          <mxGeometry x="271.75" y="730" width="120" height="40" as="geometry" />
        </mxCell>
        <mxCell id="JwCSaX0RSoOB0MdqLCf4-22" style="edgeStyle=orthogonalEdgeStyle;rounded=0;orthogonalLoop=1;jettySize=auto;html=1;entryX=0.5;entryY=0;entryDx=0;entryDy=0;" parent="WIyWlLk6GJQsqaUBKTNV-1" source="JwCSaX0RSoOB0MdqLCf4-7" target="JwCSaX0RSoOB0MdqLCf4-8" edge="1">
          <mxGeometry relative="1" as="geometry" />
        </mxCell>
        <mxCell id="JwCSaX0RSoOB0MdqLCf4-7" value="Find room" style="rounded=1;whiteSpace=wrap;html=1;" parent="WIyWlLk6GJQsqaUBKTNV-1" vertex="1">
          <mxGeometry x="81.75" y="410" width="110" height="40" as="geometry" />
        </mxCell>
        <mxCell id="JwCSaX0RSoOB0MdqLCf4-24" style="edgeStyle=orthogonalEdgeStyle;rounded=0;orthogonalLoop=1;jettySize=auto;html=1;entryX=0;entryY=0.5;entryDx=0;entryDy=0;" parent="WIyWlLk6GJQsqaUBKTNV-1" source="JwCSaX0RSoOB0MdqLCf4-8" target="JwCSaX0RSoOB0MdqLCf4-2" edge="1">
          <mxGeometry relative="1" as="geometry" />
        </mxCell>
        <mxCell id="JwCSaX0RSoOB0MdqLCf4-28" value="Yes" style="edgeLabel;html=1;align=center;verticalAlign=middle;resizable=0;points=[];" parent="JwCSaX0RSoOB0MdqLCf4-24" vertex="1" connectable="0">
          <mxGeometry x="-0.7579" y="-1" relative="1" as="geometry">
            <mxPoint as="offset" />
          </mxGeometry>
        </mxCell>
        <mxCell id="JwCSaX0RSoOB0MdqLCf4-8" value="Join room?" style="rhombus;whiteSpace=wrap;html=1;" parent="WIyWlLk6GJQsqaUBKTNV-1" vertex="1">
          <mxGeometry x="78" y="510" width="117.5" height="50" as="geometry" />
        </mxCell>
        <mxCell id="JwCSaX0RSoOB0MdqLCf4-26" value="" style="endArrow=classic;html=1;rounded=0;exitX=0;exitY=0.5;exitDx=0;exitDy=0;entryX=0;entryY=0.5;entryDx=0;entryDy=0;" parent="WIyWlLk6GJQsqaUBKTNV-1" source="JwCSaX0RSoOB0MdqLCf4-8" target="JwCSaX0RSoOB0MdqLCf4-7" edge="1">
          <mxGeometry relative="1" as="geometry">
            <mxPoint x="-28.25" y="440" as="sourcePoint" />
            <mxPoint x="77.75" y="440" as="targetPoint" />
          </mxGeometry>
        </mxCell>
        <mxCell id="JwCSaX0RSoOB0MdqLCf4-27" value="No" style="edgeLabel;resizable=0;html=1;align=center;verticalAlign=middle;" parent="JwCSaX0RSoOB0MdqLCf4-26" connectable="0" vertex="1">
          <mxGeometry relative="1" as="geometry" />
        </mxCell>
        <mxCell id="JwCSaX0RSoOB0MdqLCf4-41" style="edgeStyle=orthogonalEdgeStyle;rounded=0;orthogonalLoop=1;jettySize=auto;html=1;entryX=0;entryY=0.5;entryDx=0;entryDy=0;" parent="WIyWlLk6GJQsqaUBKTNV-1" source="JwCSaX0RSoOB0MdqLCf4-32" target="JwCSaX0RSoOB0MdqLCf4-38" edge="1">
          <mxGeometry relative="1" as="geometry" />
        </mxCell>
        <mxCell id="JwCSaX0RSoOB0MdqLCf4-42" value="&lt;font style=&quot;font-size: 12px;&quot;&gt;No&lt;/font&gt;" style="edgeLabel;html=1;align=center;verticalAlign=middle;resizable=0;points=[];" parent="JwCSaX0RSoOB0MdqLCf4-41" vertex="1" connectable="0">
          <mxGeometry x="-0.4507" y="1" relative="1" as="geometry">
            <mxPoint x="8" y="-8" as="offset" />
          </mxGeometry>
        </mxCell>
        <mxCell id="HTRj5CVmtDGynTPaIfWx-2" style="edgeStyle=orthogonalEdgeStyle;rounded=0;orthogonalLoop=1;jettySize=auto;html=1;exitX=0.5;exitY=1;exitDx=0;exitDy=0;entryX=0.5;entryY=0;entryDx=0;entryDy=0;" edge="1" parent="WIyWlLk6GJQsqaUBKTNV-1" source="JwCSaX0RSoOB0MdqLCf4-32" target="3HpmYtwetIIkrx0pe5Fz-0">
          <mxGeometry relative="1" as="geometry" />
        </mxCell>
        <mxCell id="JwCSaX0RSoOB0MdqLCf4-32" value="Have ID?" style="rhombus;whiteSpace=wrap;html=1;" parent="WIyWlLk6GJQsqaUBKTNV-1" vertex="1">
          <mxGeometry x="280" y="120" width="120" height="40" as="geometry" />
        </mxCell>
        <mxCell id="HTRj5CVmtDGynTPaIfWx-10" style="edgeStyle=orthogonalEdgeStyle;rounded=0;orthogonalLoop=1;jettySize=auto;html=1;exitX=0.25;exitY=1;exitDx=0;exitDy=0;entryX=0.75;entryY=0;entryDx=0;entryDy=0;" edge="1" parent="WIyWlLk6GJQsqaUBKTNV-1" source="JwCSaX0RSoOB0MdqLCf4-38" target="3HpmYtwetIIkrx0pe5Fz-0">
          <mxGeometry relative="1" as="geometry" />
        </mxCell>
        <mxCell id="JwCSaX0RSoOB0MdqLCf4-38" value="Register" style="rounded=1;whiteSpace=wrap;html=1;" parent="WIyWlLk6GJQsqaUBKTNV-1" vertex="1">
          <mxGeometry x="440" y="120" width="120" height="40" as="geometry" />
        </mxCell>
        <mxCell id="JwCSaX0RSoOB0MdqLCf4-67" value="Yes" style="edgeStyle=orthogonalEdgeStyle;rounded=0;orthogonalLoop=1;jettySize=auto;html=1;entryX=0.5;entryY=0;entryDx=0;entryDy=0;" parent="WIyWlLk6GJQsqaUBKTNV-1" source="JwCSaX0RSoOB0MdqLCf4-62" target="JwCSaX0RSoOB0MdqLCf4-66" edge="1">
          <mxGeometry relative="1" as="geometry" />
        </mxCell>
        <mxCell id="Gx720E7wN7_lt2PWXB4A-12" value="No" style="edgeStyle=none;curved=1;rounded=0;orthogonalLoop=1;jettySize=auto;html=1;fontSize=12;startSize=8;endSize=8;startArrow=none;startFill=0;endArrow=none;endFill=0;exitX=1;exitY=0.5;exitDx=0;exitDy=0;" edge="1" parent="WIyWlLk6GJQsqaUBKTNV-1" source="JwCSaX0RSoOB0MdqLCf4-62">
          <mxGeometry relative="1" as="geometry">
            <mxPoint x="628" y="1010" as="targetPoint" />
          </mxGeometry>
        </mxCell>
        <mxCell id="JwCSaX0RSoOB0MdqLCf4-62" value="Observe?" style="rhombus;whiteSpace=wrap;html=1;" parent="WIyWlLk6GJQsqaUBKTNV-1" vertex="1">
          <mxGeometry x="357.99999999999994" y="980" width="80" height="60" as="geometry" />
        </mxCell>
        <mxCell id="Gx720E7wN7_lt2PWXB4A-4" style="edgeStyle=none;curved=1;rounded=0;orthogonalLoop=1;jettySize=auto;html=1;fontSize=12;startSize=8;endSize=8;entryX=1;entryY=0.5;entryDx=0;entryDy=0;exitX=0;exitY=0.5;exitDx=0;exitDy=0;" edge="1" parent="WIyWlLk6GJQsqaUBKTNV-1" source="JwCSaX0RSoOB0MdqLCf4-66" target="Gx720E7wN7_lt2PWXB4A-0">
          <mxGeometry relative="1" as="geometry">
            <mxPoint x="326.7" y="1105" as="targetPoint" />
          </mxGeometry>
        </mxCell>
        <mxCell id="JwCSaX0RSoOB0MdqLCf4-66" value="View game" style="rounded=1;whiteSpace=wrap;html=1;" parent="WIyWlLk6GJQsqaUBKTNV-1" vertex="1">
          <mxGeometry x="342.78999999999996" y="1200" width="110.43" height="40" as="geometry" />
        </mxCell>
        <mxCell id="Gx720E7wN7_lt2PWXB4A-48" style="edgeStyle=none;curved=1;rounded=0;orthogonalLoop=1;jettySize=auto;html=1;entryX=0.5;entryY=0;entryDx=0;entryDy=0;fontSize=12;startSize=8;endSize=8;" edge="1" parent="WIyWlLk6GJQsqaUBKTNV-1" source="JwCSaX0RSoOB0MdqLCf4-69" target="JwCSaX0RSoOB0MdqLCf4-62">
          <mxGeometry relative="1" as="geometry" />
        </mxCell>
        <mxCell id="JwCSaX0RSoOB0MdqLCf4-69" value="Defeat scene" style="rounded=1;whiteSpace=wrap;html=1;" parent="WIyWlLk6GJQsqaUBKTNV-1" vertex="1">
          <mxGeometry x="337.99999999999994" y="890" width="120" height="45" as="geometry" />
        </mxCell>
        <mxCell id="Gx720E7wN7_lt2PWXB4A-9" style="edgeStyle=none;curved=1;rounded=0;orthogonalLoop=1;jettySize=auto;html=1;entryX=0.5;entryY=0;entryDx=0;entryDy=0;fontSize=12;startSize=8;endSize=8;" edge="1" parent="WIyWlLk6GJQsqaUBKTNV-1" source="Gx720E7wN7_lt2PWXB4A-0" target="Gx720E7wN7_lt2PWXB4A-3">
          <mxGeometry relative="1" as="geometry" />
        </mxCell>
        <mxCell id="Gx720E7wN7_lt2PWXB4A-0" value="&lt;font style=&quot;font-size: 12px;&quot;&gt;Victory scene&lt;/font&gt;" style="rounded=1;whiteSpace=wrap;html=1;fontSize=16;" vertex="1" parent="WIyWlLk6GJQsqaUBKTNV-1">
          <mxGeometry x="208" y="890" width="120" height="40" as="geometry" />
        </mxCell>
        <mxCell id="Gx720E7wN7_lt2PWXB4A-11" style="edgeStyle=none;curved=1;rounded=0;orthogonalLoop=1;jettySize=auto;html=1;entryX=0.5;entryY=0;entryDx=0;entryDy=0;fontSize=12;startSize=8;endSize=8;" edge="1" parent="WIyWlLk6GJQsqaUBKTNV-1" source="Gx720E7wN7_lt2PWXB4A-3" target="Gx720E7wN7_lt2PWXB4A-10">
          <mxGeometry relative="1" as="geometry" />
        </mxCell>
        <mxCell id="Gx720E7wN7_lt2PWXB4A-3" value="&lt;font style=&quot;font-size: 12px;&quot;&gt;Result scene&lt;/font&gt;" style="rounded=1;whiteSpace=wrap;html=1;fontSize=16;" vertex="1" parent="WIyWlLk6GJQsqaUBKTNV-1">
          <mxGeometry x="208" y="980" width="120" height="40" as="geometry" />
        </mxCell>
        <mxCell id="Gx720E7wN7_lt2PWXB4A-17" style="edgeStyle=none;curved=1;rounded=0;orthogonalLoop=1;jettySize=auto;html=1;entryX=0.5;entryY=0;entryDx=0;entryDy=0;fontSize=12;startSize=8;endSize=8;" edge="1" parent="WIyWlLk6GJQsqaUBKTNV-1" source="Gx720E7wN7_lt2PWXB4A-10" target="Gx720E7wN7_lt2PWXB4A-16">
          <mxGeometry relative="1" as="geometry" />
        </mxCell>
        <mxCell id="Gx720E7wN7_lt2PWXB4A-10" value="&lt;font style=&quot;font-size: 12px;&quot;&gt;Ending scene&lt;/font&gt;" style="rounded=1;whiteSpace=wrap;html=1;fontSize=16;" vertex="1" parent="WIyWlLk6GJQsqaUBKTNV-1">
          <mxGeometry x="205.5" y="1250" width="125" height="40" as="geometry" />
        </mxCell>
        <mxCell id="Gx720E7wN7_lt2PWXB4A-13" value="" style="endArrow=classic;html=1;rounded=0;fontSize=12;startSize=8;endSize=8;curved=1;entryX=1;entryY=0.5;entryDx=0;entryDy=0;" edge="1" parent="WIyWlLk6GJQsqaUBKTNV-1" target="Gx720E7wN7_lt2PWXB4A-10">
          <mxGeometry width="50" height="50" relative="1" as="geometry">
            <mxPoint x="628" y="1270" as="sourcePoint" />
            <mxPoint x="566.7" y="1275" as="targetPoint" />
          </mxGeometry>
        </mxCell>
        <mxCell id="Gx720E7wN7_lt2PWXB4A-20" style="edgeStyle=none;curved=1;rounded=0;orthogonalLoop=1;jettySize=auto;html=1;fontSize=12;startSize=8;endSize=8;endArrow=none;endFill=0;exitX=1;exitY=0.5;exitDx=0;exitDy=0;" edge="1" parent="WIyWlLk6GJQsqaUBKTNV-1" source="Gx720E7wN7_lt2PWXB4A-16">
          <mxGeometry relative="1" as="geometry">
            <mxPoint x="808" y="1380" as="targetPoint" />
          </mxGeometry>
        </mxCell>
        <mxCell id="Gx720E7wN7_lt2PWXB4A-25" value="&lt;font style=&quot;font-size: 12px;&quot;&gt;Yes&lt;/font&gt;" style="edgeLabel;html=1;align=center;verticalAlign=middle;resizable=0;points=[];fontSize=16;" vertex="1" connectable="0" parent="Gx720E7wN7_lt2PWXB4A-20">
          <mxGeometry x="-0.7616" y="-3" relative="1" as="geometry">
            <mxPoint y="-2" as="offset" />
          </mxGeometry>
        </mxCell>
        <mxCell id="Gx720E7wN7_lt2PWXB4A-54" style="edgeStyle=none;curved=1;rounded=0;orthogonalLoop=1;jettySize=auto;html=1;entryX=0.5;entryY=0;entryDx=0;entryDy=0;fontSize=12;startSize=8;endSize=8;" edge="1" parent="WIyWlLk6GJQsqaUBKTNV-1" source="Gx720E7wN7_lt2PWXB4A-16" target="Gx720E7wN7_lt2PWXB4A-53">
          <mxGeometry relative="1" as="geometry" />
        </mxCell>
        <mxCell id="Gx720E7wN7_lt2PWXB4A-58" value="&lt;font style=&quot;font-size: 12px;&quot;&gt;Yes&lt;/font&gt;" style="edgeLabel;html=1;align=center;verticalAlign=middle;resizable=0;points=[];fontSize=16;" vertex="1" connectable="0" parent="Gx720E7wN7_lt2PWXB4A-54">
          <mxGeometry x="-0.48" y="2" relative="1" as="geometry">
            <mxPoint x="-2" as="offset" />
          </mxGeometry>
        </mxCell>
        <mxCell id="Gx720E7wN7_lt2PWXB4A-16" value="&lt;font style=&quot;font-size: 12px;&quot;&gt;Regame?&lt;/font&gt;" style="rhombus;whiteSpace=wrap;html=1;fontSize=16;" vertex="1" parent="WIyWlLk6GJQsqaUBKTNV-1">
          <mxGeometry x="213" y="1360" width="110" height="50" as="geometry" />
        </mxCell>
        <mxCell id="Gx720E7wN7_lt2PWXB4A-22" value="" style="endArrow=none;html=1;rounded=0;fontSize=12;startSize=8;endSize=8;curved=1;endFill=0;" edge="1" parent="WIyWlLk6GJQsqaUBKTNV-1">
          <mxGeometry width="50" height="50" relative="1" as="geometry">
            <mxPoint x="808" y="1380" as="sourcePoint" />
            <mxPoint x="808" y="590" as="targetPoint" />
          </mxGeometry>
        </mxCell>
        <mxCell id="Gx720E7wN7_lt2PWXB4A-23" value="" style="endArrow=classic;html=1;rounded=0;fontSize=12;startSize=8;endSize=8;curved=1;entryX=1;entryY=0.5;entryDx=0;entryDy=0;" edge="1" parent="WIyWlLk6GJQsqaUBKTNV-1" target="ZR01JRABGJdEw6RTcn_Y-5">
          <mxGeometry width="50" height="50" relative="1" as="geometry">
            <mxPoint x="808" y="590" as="sourcePoint" />
            <mxPoint x="718" y="550" as="targetPoint" />
          </mxGeometry>
        </mxCell>
        <mxCell id="Gx720E7wN7_lt2PWXB4A-24" value="" style="endArrow=none;html=1;rounded=0;fontSize=12;startSize=8;endSize=8;curved=1;" edge="1" parent="WIyWlLk6GJQsqaUBKTNV-1">
          <mxGeometry width="50" height="50" relative="1" as="geometry">
            <mxPoint x="627" y="1270" as="sourcePoint" />
            <mxPoint x="627" y="1010" as="targetPoint" />
          </mxGeometry>
        </mxCell>
        <mxCell id="Gx720E7wN7_lt2PWXB4A-26" value="&lt;font style=&quot;font-size: 12px;&quot;&gt;Game end&lt;/font&gt;" style="rounded=1;whiteSpace=wrap;html=1;fontSize=16;" vertex="1" parent="WIyWlLk6GJQsqaUBKTNV-1">
          <mxGeometry x="208" y="1580" width="120" height="40" as="geometry" />
        </mxCell>
        <mxCell id="HTRj5CVmtDGynTPaIfWx-8" style="edgeStyle=orthogonalEdgeStyle;rounded=0;orthogonalLoop=1;jettySize=auto;html=1;exitX=0.5;exitY=0;exitDx=0;exitDy=0;entryX=0.5;entryY=1;entryDx=0;entryDy=0;" edge="1" parent="WIyWlLk6GJQsqaUBKTNV-1" source="Gx720E7wN7_lt2PWXB4A-29" target="JwCSaX0RSoOB0MdqLCf4-38">
          <mxGeometry relative="1" as="geometry" />
        </mxCell>
        <mxCell id="HTRj5CVmtDGynTPaIfWx-9" style="edgeStyle=orthogonalEdgeStyle;rounded=0;orthogonalLoop=1;jettySize=auto;html=1;exitX=0.5;exitY=0;exitDx=0;exitDy=0;entryX=1;entryY=0.5;entryDx=0;entryDy=0;" edge="1" parent="WIyWlLk6GJQsqaUBKTNV-1" source="Gx720E7wN7_lt2PWXB4A-29" target="3HpmYtwetIIkrx0pe5Fz-0">
          <mxGeometry relative="1" as="geometry" />
        </mxCell>
        <mxCell id="Gx720E7wN7_lt2PWXB4A-29" value="&lt;font style=&quot;font-size: 12px;&quot;&gt;Find ID / PW&lt;/font&gt;" style="rounded=1;whiteSpace=wrap;html=1;fontSize=16;" vertex="1" parent="WIyWlLk6GJQsqaUBKTNV-1">
          <mxGeometry x="440" y="280" width="120" height="40" as="geometry" />
        </mxCell>
        <mxCell id="Gx720E7wN7_lt2PWXB4A-35" style="edgeStyle=none;curved=1;rounded=0;orthogonalLoop=1;jettySize=auto;html=1;exitX=0.25;exitY=0;exitDx=0;exitDy=0;fontSize=12;startSize=8;endSize=8;" edge="1" parent="WIyWlLk6GJQsqaUBKTNV-1" source="Gx720E7wN7_lt2PWXB4A-29" target="Gx720E7wN7_lt2PWXB4A-29">
          <mxGeometry relative="1" as="geometry" />
        </mxCell>
        <mxCell id="Gx720E7wN7_lt2PWXB4A-46" style="edgeStyle=none;curved=1;rounded=0;orthogonalLoop=1;jettySize=auto;html=1;entryX=0.5;entryY=0;entryDx=0;entryDy=0;fontSize=12;startSize=8;endSize=8;" edge="1" parent="WIyWlLk6GJQsqaUBKTNV-1" source="Gx720E7wN7_lt2PWXB4A-40" target="Gx720E7wN7_lt2PWXB4A-0">
          <mxGeometry relative="1" as="geometry" />
        </mxCell>
        <mxCell id="Gx720E7wN7_lt2PWXB4A-40" value="Victory" style="rounded=1;whiteSpace=wrap;html=1;fontSize=16;" vertex="1" parent="WIyWlLk6GJQsqaUBKTNV-1">
          <mxGeometry x="218" y="820" width="100" height="30" as="geometry" />
        </mxCell>
        <mxCell id="Gx720E7wN7_lt2PWXB4A-43" value="" style="strokeWidth=2;html=1;shape=mxgraph.flowchart.annotation_2;align=left;labelPosition=right;pointerEvents=1;fontSize=16;rotation=90;" vertex="1" parent="WIyWlLk6GJQsqaUBKTNV-1">
          <mxGeometry x="306.7" y="730" width="50" height="130" as="geometry" />
        </mxCell>
        <mxCell id="Gx720E7wN7_lt2PWXB4A-47" style="edgeStyle=none;curved=1;rounded=0;orthogonalLoop=1;jettySize=auto;html=1;entryX=0.5;entryY=0;entryDx=0;entryDy=0;fontSize=12;startSize=8;endSize=8;" edge="1" parent="WIyWlLk6GJQsqaUBKTNV-1" source="Gx720E7wN7_lt2PWXB4A-45" target="JwCSaX0RSoOB0MdqLCf4-69">
          <mxGeometry relative="1" as="geometry" />
        </mxCell>
        <mxCell id="Gx720E7wN7_lt2PWXB4A-45" value="Defeat" style="rounded=1;whiteSpace=wrap;html=1;fontSize=16;" vertex="1" parent="WIyWlLk6GJQsqaUBKTNV-1">
          <mxGeometry x="348" y="820" width="100" height="30" as="geometry" />
        </mxCell>
        <mxCell id="Gx720E7wN7_lt2PWXB4A-56" style="edgeStyle=none;curved=1;rounded=0;orthogonalLoop=1;jettySize=auto;html=1;fontSize=12;startSize=8;endSize=8;" edge="1" parent="WIyWlLk6GJQsqaUBKTNV-1" source="Gx720E7wN7_lt2PWXB4A-53">
          <mxGeometry relative="1" as="geometry">
            <mxPoint x="268" y="1580" as="targetPoint" />
            <Array as="points" />
          </mxGeometry>
        </mxCell>
        <mxCell id="Gx720E7wN7_lt2PWXB4A-57" value="&lt;font style=&quot;font-size: 12px;&quot;&gt;Yes&lt;/font&gt;" style="edgeLabel;html=1;align=center;verticalAlign=middle;resizable=0;points=[];fontSize=16;" vertex="1" connectable="0" parent="Gx720E7wN7_lt2PWXB4A-56">
          <mxGeometry x="0.1233" y="1" relative="1" as="geometry">
            <mxPoint x="-1" y="-9" as="offset" />
          </mxGeometry>
        </mxCell>
        <mxCell id="Gx720E7wN7_lt2PWXB4A-53" value="&lt;span style=&quot;font-size: 12px;&quot;&gt;Quit game?&lt;/span&gt;" style="rhombus;whiteSpace=wrap;html=1;fontSize=16;" vertex="1" parent="WIyWlLk6GJQsqaUBKTNV-1">
          <mxGeometry x="213" y="1470" width="110" height="50" as="geometry" />
        </mxCell>
        <mxCell id="Gx720E7wN7_lt2PWXB4A-60" value="" style="endArrow=none;html=1;rounded=0;fontSize=12;startSize=8;endSize=8;curved=1;entryX=0;entryY=0.5;entryDx=0;entryDy=0;" edge="1" parent="WIyWlLk6GJQsqaUBKTNV-1" target="Gx720E7wN7_lt2PWXB4A-53">
          <mxGeometry width="50" height="50" relative="1" as="geometry">
            <mxPoint x="18" y="1495" as="sourcePoint" />
            <mxPoint x="-62" y="1350" as="targetPoint" />
          </mxGeometry>
        </mxCell>
        <mxCell id="Gx720E7wN7_lt2PWXB4A-66" value="&lt;font style=&quot;font-size: 12px;&quot;&gt;No&lt;/font&gt;" style="edgeLabel;html=1;align=center;verticalAlign=middle;resizable=0;points=[];fontSize=16;" vertex="1" connectable="0" parent="Gx720E7wN7_lt2PWXB4A-60">
          <mxGeometry x="0.1658" y="-1" relative="1" as="geometry">
            <mxPoint as="offset" />
          </mxGeometry>
        </mxCell>
        <mxCell id="Gx720E7wN7_lt2PWXB4A-64" value="" style="endArrow=none;html=1;rounded=0;fontSize=12;startSize=8;endSize=8;curved=1;" edge="1" parent="WIyWlLk6GJQsqaUBKTNV-1">
          <mxGeometry width="50" height="50" relative="1" as="geometry">
            <mxPoint x="18" y="1500" as="sourcePoint" />
            <mxPoint x="18" y="590" as="targetPoint" />
          </mxGeometry>
        </mxCell>
        <mxCell id="Gx720E7wN7_lt2PWXB4A-71" value="" style="endArrow=classic;html=1;rounded=0;fontSize=12;startSize=8;endSize=8;curved=1;entryX=0;entryY=0.5;entryDx=0;entryDy=0;" edge="1" parent="WIyWlLk6GJQsqaUBKTNV-1" target="ZR01JRABGJdEw6RTcn_Y-5">
          <mxGeometry width="50" height="50" relative="1" as="geometry">
            <mxPoint x="18" y="590" as="sourcePoint" />
            <mxPoint x="158" y="560" as="targetPoint" />
          </mxGeometry>
        </mxCell>
      </root>
    </mxGraphModel>
  </diagram>
</mxfile>
